<svg height="300" viewBox="0 0 60 60" width="300" xmlns="http://www.w3.org/2000/svg" version="1.1" xmlns:xlink="http://www.w3.org/1999/xlink" xmlns:svgjs="http://svgjs.dev/svgjs"><g width="100%" height="100%" transform="matrix(1,0,0,1,0,0)"><g id="Icons"><path d="m8 46h4v4a3 3 0 0 0 3 3h4v4a3 3 0 0 0 3 3h30a3 3 0 0 0 3-3v-40a3 3 0 0 0 -3-3h-4v-4a3 3 0 0 0 -3-3h-4v-4a3 3 0 0 0 -3-3h-23a1.137 1.137 0 0 0 -.707.293l-9 9a1.1 1.1 0 0 0 -.293.707v33a3 3 0 0 0 3 3zm44-30a1 1 0 0 1 1 1v40a1 1 0 0 1 -1 1h-30a1 1 0 0 1 -1-1v-4h24a3 3 0 0 0 3-3v-34zm-7-7a1 1 0 0 1 1 1v40a1 1 0 0 1 -1 1h-30a1 1 0 0 1 -1-1v-4h24a3 3 0 0 0 3-3v-34zm-6-6v40a1 1 0 0 1 -1 1h-30a1 1 0 0 1 -1-1v-32h6a3 3 0 0 0 3-3v-6h22a1 1 0 0 1 1 1zm-25 .414v4.586a1 1 0 0 1 -1 1h-4.586z" fill="#6b5742" fill-opacity="1" data-original-color="#000000ff" stroke="none" stroke-opacity="1"/><path d="m36 15h-26a1 1 0 0 0 0 2h26a1 1 0 0 0 0-2z" fill="#6b5742" fill-opacity="1" data-original-color="#000000ff" stroke="none" stroke-opacity="1"/><path d="m36 20h-26a1 1 0 0 0 0 2h26a1 1 0 0 0 0-2z" fill="#6b5742" fill-opacity="1" data-original-color="#000000ff" stroke="none" stroke-opacity="1"/><path d="m36 25h-26a1 1 0 0 0 0 2h26a1 1 0 0 0 0-2z" fill="#6b5742" fill-opacity="1" data-original-color="#000000ff" stroke="none" stroke-opacity="1"/><path d="m23 30h-13a1 1 0 0 0 0 2h13a1 1 0 0 0 0-2z" fill="#6b5742" fill-opacity="1" data-original-color="#000000ff" stroke="none" stroke-opacity="1"/><path d="m23 35h-13a1 1 0 0 0 0 2h13a1 1 0 0 0 0-2z" fill="#6b5742" fill-opacity="1" data-original-color="#000000ff" stroke="none" stroke-opacity="1"/><path d="m23 7h13a1 1 0 0 0 0-2h-13a1 1 0 0 0 0 2z" fill="#6b5742" fill-opacity="1" data-original-color="#000000ff" stroke="none" stroke-opacity="1"/><path d="m36 10h-13a1 1 0 0 0 0 2h13a1 1 0 0 0 0-2z" fill="#6b5742" fill-opacity="1" data-original-color="#000000ff" stroke="none" stroke-opacity="1"/><path d="m35 30h-7a2 2 0 0 0 -2 2v7a2 2 0 0 0 2 2h7a2 2 0 0 0 2-2v-7a2 2 0 0 0 -2-2zm-7 9v-7h7v7z" fill="#6b5742" fill-opacity="1" data-original-color="#000000ff" stroke="none" stroke-opacity="1"/></g></g></svg>