<svg xmlns="http://www.w3.org/2000/svg" id="Layer_1" data-name="Layer 1" viewBox="0 0 128 128" width="300" height="300" version="1.1" xmlns:xlink="http://www.w3.org/1999/xlink" xmlns:svgjs="http://svgjs.dev/svgjs"><g width="100%" height="100%" transform="matrix(1,0,0,1,0,0)"><title/><path d="M64,110a2.0001,2.0001,0,0,0-2,2v14a2,2,0,0,0,4,0V112A2.0001,2.0001,0,0,0,64,110Z" fill="#6b5742" fill-opacity="1" data-original-color="#000000ff" stroke="none" stroke-opacity="1"/><path d="M126,65H112.67725a2,2,0,0,0-1.104.332L99.19238,73.52637,91.94678,60.78809a9.04457,9.04457,0,0,0-5.65332-4.28418L76.38037,54.042,74.5332,49.43646c.2356-.27728.47925-.5589.73584-.84564,1.38989-1.55133,2.23444-4.01312,2.58228-7.4812a1.97461,1.97461,0,0,0,.16284-.26392c.15723-.33691,3.8335-8.31348,2.79932-14.208a7.42872,7.42872,0,0,0-2.9834-5.16309,5.92255,5.92255,0,0,0-2.86133-.97852c-1.64258-2.48535-4.13281-3.60742-9.05322-4.24414C55.79492,14.94336,49.084,18.63281,47.51025,26.373c-1.794,8.82611,1.65326,13.67242,2.56592,14.76978.19067,2.36078.75555,5.30438,2.67529,7.448.25146.28076.49091.55682.72211.82867L51.61963,54.042l-9.91309,2.46191a9.04457,9.04457,0,0,0-5.65332,4.28418L28.80762,73.52637,16.42676,65.332a2,2,0,0,0-1.104-.332L2,65.001a2.0001,2.0001,0,0,0-2,2,9.80955,9.80955,0,0,0,8.73584,9.75977q.0542.00586.1084.00879l3.34766.18848L26.81249,89.9541a6.00081,6.00081,0,0,0,8.32227-.33984L43,81.1084V100a3.99577,3.99577,0,0,0,3,3.858V126a2,2,0,0,0,4,0V104H78v22a2,2,0,0,0,4,0V103.858A3.99577,3.99577,0,0,0,85,100V81.1084l7.89941,8.543a5.99035,5.99035,0,0,0,8.28808.30273L115.80811,76.958l3.34766-.18848q.0542-.00293.1084-.00879A9.80979,9.80979,0,0,0,128,67,2.0001,2.0001,0,0,0,126,65ZM56.26172,33.39355c6.88477,1.87012,11.9624,1.126,15.13281.08105a11.30091,11.30091,0,0,0,2.50861,6.96588c-.32013,3.53906-1.13745,4.94989-1.61407,5.48236-1.02979,1.15039-1.86719,2.20508-2.60645,3.13574C67.30518,52.05273,66.439,53,63.97314,53c-2.39111,0-3.25732-.94727-5.63574-3.94238-.73877-.93066-1.57617-1.98437-2.606-3.13477-.95721-1.069-1.50818-2.85522-1.68817-5.42633A10.56761,10.56761,0,0,0,56.26172,33.39355ZM72.72107,55.66333,64,66.7627,55.27887,55.66333l1.07971-2.692C58.31537,55.30939,60.2702,57,64.04785,57c3.70636,0,5.65027-1.68182,7.60034-4.01172Zm46.152,17.116-3.98535.22363a1.99846,1.99846,0,0,0-1.21631.502l-15.14111,13.459a1.98894,1.98894,0,0,1-2.72852-.06445L84.46826,74.64258A1.99974,1.99974,0,0,0,81,76v24l-.99915.00006L80,100l-.00085.00006-31.97095.00281C48.01855,100.00275,48.00964,100,48,100s-.01855.00275-.0282.00287L47,100.00293V76a1.99962,1.99962,0,0,0-3.46826-1.35742L32.23242,86.8623a1.9946,1.9946,0,0,1-2.7627.10156l-15.14111-13.459a1.99846,1.99846,0,0,0-1.21631-.502L9.127,72.7793A5.815,5.815,0,0,1,4.35205,69H14.7207l13.66357,9.043a2.0003,2.0003,0,0,0,2.84229-.67871L39.52979,62.7666a5.02209,5.02209,0,0,1,3.14063-2.37988L52.069,58.05219,62.42725,71.23535a1.99977,1.99977,0,0,0,3.14551,0L75.931,58.05219l9.39862,2.33453a5.02209,5.02209,0,0,1,3.14063,2.37988l8.30322,14.59766a2.0003,2.0003,0,0,0,2.84229.67871L113.2793,69l10.36865.001A5.81627,5.81627,0,0,1,118.873,72.7793Z" fill="#6b5742" fill-opacity="1" data-original-color="#000000ff" stroke="none" stroke-opacity="1"/><circle cx="64" cy="78" r="2" fill="#6b5742" fill-opacity="1" data-original-color="#000000ff" stroke="none" stroke-opacity="1"/><circle cx="64" cy="86" r="2" fill="#6b5742" fill-opacity="1" data-original-color="#000000ff" stroke="none" stroke-opacity="1"/><path d="M87,10a2.0001,2.0001,0,0,0,2-2,4,4,0,1,1,4,4,2.0001,2.0001,0,0,0-2,2v6a2,2,0,0,0,4,0V15.74707A8.00048,8.00048,0,1,0,85,8,2.0001,2.0001,0,0,0,87,10Z" fill="#6b5742" fill-opacity="1" data-original-color="#000000ff" stroke="none" stroke-opacity="1"/><path d="M101,26a2.0001,2.0001,0,0,0,2-2,4,4,0,1,1,4,4,2.0001,2.0001,0,0,0-2,2v6a2,2,0,0,0,4,0V31.74707A8.00048,8.00048,0,1,0,99,24,2.0001,2.0001,0,0,0,101,26Z" fill="#6b5742" fill-opacity="1" data-original-color="#000000ff" stroke="none" stroke-opacity="1"/><path d="M29,10a2.0001,2.0001,0,0,0,2-2,4,4,0,1,1,4,4,2.0001,2.0001,0,0,0-2,2v6a2,2,0,0,0,4,0V15.74707A8.00048,8.00048,0,1,0,27,8,2.0001,2.0001,0,0,0,29,10Z" fill="#6b5742" fill-opacity="1" data-original-color="#000000ff" stroke="none" stroke-opacity="1"/><path d="M15,26a2.0001,2.0001,0,0,0,2-2,4,4,0,1,1,4,4,2.0001,2.0001,0,0,0-2,2v6a2,2,0,0,0,4,0V31.74707A8.00048,8.00048,0,1,0,13,24,2.0001,2.0001,0,0,0,15,26Z" fill="#6b5742" fill-opacity="1" data-original-color="#000000ff" stroke="none" stroke-opacity="1"/><circle cx="21" cy="42" r="2" fill="#6b5742" fill-opacity="1" data-original-color="#000000ff" stroke="none" stroke-opacity="1"/><circle cx="35" cy="26" r="2" fill="#6b5742" fill-opacity="1" data-original-color="#000000ff" stroke="none" stroke-opacity="1"/><circle cx="93" cy="26" r="2" fill="#6b5742" fill-opacity="1" data-original-color="#000000ff" stroke="none" stroke-opacity="1"/><circle cx="107" cy="42" r="2" fill="#6b5742" fill-opacity="1" data-original-color="#000000ff" stroke="none" stroke-opacity="1"/></g></svg>