<svg id="Layer_1" viewBox="0 0 512 512" xmlns="http://www.w3.org/2000/svg" data-name="Layer 1" width="300" height="300" version="1.1" xmlns:xlink="http://www.w3.org/1999/xlink" xmlns:svgjs="http://svgjs.dev/svgjs"><g width="100%" height="100%" transform="matrix(1,0,0,1,0,0)"><path d="m435.203 227.952c-5.818-4.588-13.456-5.203-19.931-1.6l-23.516 13.079c-4.187 2.329-6.852 6.399-7.311 11.166-.044.452-.047.898-.05 1.344l-11.38 6.329c-15.894 8.841-32.928 10.365-50.628 4.53-22.395-7.38-46.372-3.253-71.271 12.271l-.64.399c-20.051-12.695-38.04-11.138-55.473-9.626-18.332 1.588-37.287 3.232-62.099-10.723l-5.292-2.976c.004-.513-.007-1.029-.057-1.549-.461-4.767-3.126-8.836-7.311-11.165l-23.516-13.079c-6.477-3.603-14.115-2.988-19.932 1.6-38.533 30.392-59.971 84.406-50.973 128.432 1.206 5.898 5.075 10.632 10.618 12.986h.001l18.44 7.83c1.84.781 3.752 1.168 5.649 1.168 2.725 0 5.419-.798 7.825-2.372.72-.472 1.366-1.012 1.976-1.581l43.668 22.511 12.856 13.833-.641 1.111c-7.176 12.43-2.902 28.382 9.528 35.56 3.985 2.3 8.328 3.415 12.631 3.471-3.534 11.359 1.112 24.081 11.836 30.273 3.992 2.304 8.43 3.481 12.934 3.481 2.27 0 4.557-.299 6.812-.903 2.201-.59 4.279-1.451 6.206-2.547 2.195 5.158 5.968 9.443 10.888 12.284 4.089 2.36 8.557 3.481 12.971 3.481 4.95 0 9.826-1.419 14.016-4.077 2.23 4.864 5.884 8.909 10.592 11.627 3.992 2.306 8.43 3.482 12.935 3.482 2.27 0 4.557-.299 6.812-.903 6.73-1.803 12.346-6.103 15.812-12.105l.13-.224 4.977 2.799c5.376 3.104 10.888 4.667 16.1 4.667 4.236 0 8.275-1.034 11.878-3.114 7.024-4.055 11.459-11.547 11.734-19.69 1.317.212 2.641.329 3.96.329 8.672 0 17.119-4.498 21.757-12.532 2.772-4.801 3.766-10.146 3.196-15.274 2.121-.042 4.253-.33 6.358-.894 6.786-1.818 12.448-6.152 15.942-12.205 3.064-5.307 4.05-11.249 3.226-16.887 1.969-.073 3.947-.356 5.9-.879 6.787-1.818 12.448-6.153 15.942-12.206 2.423-4.197 3.599-9.054 3.455-13.911l46.119-21.338c.811.884 1.74 1.681 2.786 2.367 2.402 1.571 5.094 2.368 7.818 2.368 1.898 0 3.811-.387 5.652-1.168l18.439-7.83s0 0 0 0c5.542-2.354 9.412-7.088 10.618-12.986 8.998-44.026-12.44-98.04-50.973-128.432zm-374.375 136.218s-.039.05-.139.115c-.104.068-.159.083-.159.083-.006 0-.062-.004-.177-.053l-18.439-7.83c-1.331-.565-2.085-1.488-2.375-2.903-7.996-39.129 11.319-87.341 45.927-114.638 1.36-1.072 2.943-1.2 4.457-.357l23.515 13.078c.104.059.144.099.146.099.003.007.025.06.036.178.012.118 0 .173.001.174-.004.006-.034.054-.127.132-33.992 28.617-52.197 67.259-52.647 111.745-.001.124-.02.178-.019.178zm77.511 54.703 13.677-23.688c1.596-2.765 4.193-4.748 7.311-5.583 3.12-.836 6.358-.417 9.123 1.18 2.765 1.596 4.748 4.192 5.583 7.311.836 3.118.417 6.358-1.18 9.123l-13.679 23.693c-3.317 5.743-10.689 7.719-16.432 4.401-5.746-3.317-7.721-10.69-4.404-16.436zm37.994 51.358c-3.117.833-6.358.416-9.123-1.181-5.745-3.316-7.72-10.688-4.404-16.434l8.492-14.708s.002-.003.003-.005l13.677-23.689c3.317-5.745 10.69-7.723 16.435-4.403 2.765 1.596 4.748 4.192 5.583 7.311.835 3.118.417 6.358-1.18 9.123l-22.172 38.402c-1.596 2.766-4.193 4.748-7.311 5.584zm27.716 11.135c-2.765-1.596-4.748-4.192-5.584-7.311-.835-3.118-.417-6.358 1.18-9.123l18.295-31.688c1.596-2.765 4.192-4.747 7.311-5.583 3.117-.836 6.358-.417 9.123 1.181 2.765 1.596 4.748 4.192 5.583 7.311.836 3.118.417 6.358-1.18 9.123l-18.294 31.687c-3.317 5.745-10.69 7.723-16.434 4.403zm46.703 12.213c-3.119.835-6.358.416-9.123-1.181-2.765-1.596-4.748-4.192-5.583-7.311-.836-3.118-.417-6.358 1.18-9.123l13.676-23.688c2.226-3.855 6.278-6.013 10.44-6.013 2.039 0 4.105.519 5.995 1.609 2.765 1.596 4.748 4.192 5.583 7.311.835 3.118.417 6.358-1.18 9.123l-13.677 23.689c-1.596 2.765-4.193 4.748-7.311 5.583zm128.411-91.694c-1.624 2.813-4.267 4.832-7.441 5.683-3.173.85-6.471.424-9.286-1.201l-5.804-3.351c-.006-.004-.012-.008-.019-.011-.003-.002-.006-.003-.01-.005l-8.699-5.022c-3.347-1.931-7.629-.785-9.562 2.562-1.933 3.349-.786 7.629 2.562 9.562l8.712 5.029c5.845 3.377 7.855 10.879 4.479 16.725-1.625 2.814-4.268 4.832-7.442 5.683-3.174.852-6.471.424-9.287-1.201l-5.818-3.359s-.003-.002-.004-.002c0 0-.001 0-.002-.001l-8.957-5.171c-3.346-1.931-7.628-.785-9.562 2.562-1.933 3.349-.786 7.629 2.562 9.562l8.946 5.164s.008.005.012.008c5.289 3.053 7.107 9.84 4.054 15.128-1.469 2.545-3.859 4.369-6.73 5.139-2.873.768-5.854.385-8.399-1.086l-10.832-6.253c-.006-.003-.011-.007-.017-.01s-1.638-.945-1.638-.945c-3.348-1.93-7.629-.785-9.562 2.562-1.933 3.349-.786 7.63 2.562 9.562l1.641.947c4.47 2.582 5.408 6.04 5.408 8.486 0 3.413-1.869 6.697-4.761 8.367-3.64 2.102-8.604 1.551-14.047-1.593l-4.908-2.76 6.547-11.34c7.177-12.43 2.902-28.382-9.528-35.559-6.504-3.754-13.97-4.368-20.64-2.326-.069-.298-.137-.596-.216-.893-1.804-6.729-6.103-12.345-12.106-15.812-6.004-3.467-13.016-4.383-19.746-2.578-.296.079-.588.17-.88.259-1.566-6.798-5.832-12.957-12.335-16.712-6.503-3.754-13.97-4.368-20.64-2.326-.069-.297-.136-.595-.216-.892-1.804-6.73-6.103-12.346-12.106-15.812-12.43-7.176-28.382-2.901-35.558 9.528l-5.712 9.894-10.757-11.575c-.551-.594-1.201-1.086-1.92-1.457l-46.588-24.016c1.156-38.744 16.597-71.229 45.925-96.631l5.202 2.925c28.579 16.075 50.675 14.158 70.171 12.468 14.876-1.291 27.198-2.354 40.715 4.127l-47.648 29.709c-6.107 3.807-9.711 9.496-10.149 16.02-.476 7.08 2.976 14.581 9.008 19.576 21.042 17.424 40.453 7.94 57.578-.425 10.708-5.231 21.781-10.641 33.943-10.712h.253c13.287 0 24.075 6.24 35.489 12.845l58.965 34.045c4.023 2.947 4.856 4.807 6.07 7.938.72 3.062.263 6.314-1.271 8.973zm2.518-28.853-57.831-33.388-1.44-.833c-12.516-7.241-25.454-14.727-42.489-14.727-.115 0-.231 0-.347 0-15.354.091-28.451 6.488-40.005 12.133-18.149 8.867-29.073 13.344-42.504 2.221-2.547-2.109-4.142-5.266-3.968-7.854.134-1.995 1.308-3.657 3.588-5.079l61.837-38.555c21.505-13.407 40.962-16.96 59.481-10.854 21.262 7.007 42.639 5.074 61.815-5.593l11.199-6.228c29.152 25.19 44.629 57.356 46.035 95.697l-46.645 21.581c-1.662-2.536-4.11-5.242-8.139-8.14-.19-.137-.386-.264-.588-.381zm90.779-19.45c-.29 1.415-1.044 2.338-2.375 2.903l-18.437 7.83c-.115.049-.172.053-.172.054-.005 0-.06-.016-.161-.081-.104-.067-.139-.112-.141-.112-.002-.006-.02-.06-.021-.184-.451-44.487-18.656-83.128-52.65-111.747-.09-.075-.121-.122-.122-.122-.001-.008-.013-.062 0-.182.011-.118.032-.17.032-.171.005-.006.044-.047.149-.104l23.516-13.079c1.515-.842 3.097-.715 4.457.358 34.608 27.296 53.923 75.508 45.927 114.637zm-232.551-92.076c4.277 2.537 8.457 5.017 12.469 7.442 1.113.673 2.368 1.01 3.622 1.01s2.508-.337 3.622-1.01c4.012-2.426 8.191-4.904 12.469-7.441 31.952-18.952 68.167-40.433 84.604-68.109 7.045-11.862 10.47-24.465 10.47-38.527v-102.155c0-3.199-2.169-5.991-5.269-6.782-28.332-7.23-69.058-20.191-102.188-40.876-2.269-1.417-5.146-1.417-7.414 0-33.13 20.685-73.856 33.646-102.188 40.876-3.1.791-5.269 3.583-5.269 6.782v102.154c0 14.062 3.425 26.665 10.47 38.527 16.436 27.676 52.651 49.156 84.603 68.108zm-81.073-203.381c27.847-7.414 65.302-19.842 97.164-38.925 31.862 19.083 69.317 31.511 97.164 38.925v96.745c0 11.476-2.783 21.74-8.507 31.379-14.613 24.605-49.196 45.118-79.708 63.216-3.04 1.803-6.031 3.577-8.948 5.324-2.918-1.747-5.909-3.521-8.949-5.324-30.512-18.099-65.095-38.611-79.708-63.216-5.724-9.639-8.507-19.903-8.507-31.379v-96.745zm93.615 181.471c1.095.644 2.322.966 3.549.966s2.454-.322 3.549-.966c24.658-14.504 61.921-36.422 75.398-59.114 4.724-7.954 6.924-16.092 6.924-25.612v-82.856c0-3.108-2.049-5.843-5.032-6.717-29.446-8.629-55.513-19.109-77.474-31.15-2.097-1.148-4.634-1.148-6.73 0-21.961 12.041-48.027 22.521-77.474 31.15-2.982.874-5.032 3.609-5.032 6.717v82.856c0 9.52 2.2 17.658 6.924 25.612 13.477 22.692 50.74 44.61 75.398 59.114zm-68.322-162.367c26.907-8.179 51.043-17.914 71.871-28.99 20.829 11.076 44.964 20.811 71.871 28.99v77.641c0 6.991-1.53 12.686-4.961 18.463-11.033 18.578-44.695 39.007-66.91 52.106-22.214-13.099-55.877-33.528-66.91-52.106-3.431-5.777-4.961-11.471-4.961-18.463zm37.49 99.774c2.636 4.567 6.967 7.461 12.196 8.149.769.101 1.53.151 2.282.151 4.369 0 8.426-1.686 11.606-4.866l61.891-61.891c6.855-6.855 6.855-18.01 0-24.865-3.313-3.313-7.729-5.138-12.433-5.138s-9.121 1.825-12.433 5.137l-44.765 44.764-9.892-17.134c-4.848-8.395-15.624-11.281-24.019-6.435-8.396 4.847-11.283 15.622-6.436 24.019l22.002 38.108zm-8.566-50.002c1.681-.97 3.924-.371 4.895 1.311l14.453 25.034c1.088 1.884 2.991 3.156 5.148 3.44 2.158.284 4.325-.451 5.863-1.99l51.216-51.215c.901-.902 1.974-1.037 2.533-1.037s1.631.135 2.533 1.037c1.374 1.373 1.374 3.694 0 5.067l-61.891 61.891c-.64.64-1.268.85-2.162.734-.896-.118-1.447-.485-1.899-1.269l-22.001-38.108c-.971-1.682-.371-3.924 1.311-4.895zm180.589 22.901-3.764 19.668c-.746 3.892.783 7.756 3.986 10.081 3.205 2.331 7.352 2.592 10.823.679l17.543-9.658 17.544 9.658c1.544.85 3.222 1.271 4.891 1.271 2.083 0 4.152-.655 5.929-1.948 3.206-2.329 4.734-6.192 3.989-10.082l-3.765-19.67 14.609-13.702c2.888-2.71 3.921-6.733 2.697-10.5-1.225-3.767-4.427-6.414-8.355-6.907l-19.87-2.498-8.516-18.126c-1.685-3.585-5.191-5.812-9.152-5.812s-7.467 2.227-9.152 5.812l-8.516 18.126-19.87 2.498c-3.931.494-7.133 3.141-8.356 6.908-1.224 3.767-.19 7.79 2.699 10.501l14.607 13.7zm16.49-20.197c2.381-.299 4.442-1.797 5.462-3.969l6.636-14.125 6.636 14.125c1.021 2.171 3.082 3.669 5.462 3.969l15.484 1.946-11.383 10.676c-1.75 1.641-2.538 4.065-2.086 6.421l2.934 15.328-13.671-7.526c-2.103-1.157-4.65-1.157-6.752 0l-13.67 7.526 2.933-15.328c.451-2.357-.336-4.78-2.086-6.421l-11.382-10.676 15.484-1.946zm-348.95 20.197-3.764 19.668c-.746 3.892.783 7.756 3.985 10.081 3.205 2.331 7.351 2.592 10.823.679l17.543-9.658 17.544 9.658c1.544.85 3.222 1.271 4.891 1.271 2.083 0 4.152-.655 5.93-1.948 3.206-2.329 4.734-6.192 3.988-10.082l-3.765-19.67 14.61-13.702c2.887-2.71 3.92-6.733 2.696-10.5-1.225-3.767-4.427-6.414-8.355-6.907l-19.87-2.498-8.516-18.126c-1.685-3.585-5.191-5.812-9.152-5.812s-7.467 2.227-9.152 5.812l-8.516 18.126-19.87 2.498c-3.931.494-7.133 3.141-8.356 6.908-1.224 3.766-.19 7.789 2.699 10.501l14.607 13.7zm16.49-20.197c2.381-.299 4.442-1.797 5.462-3.969l6.636-14.125 6.636 14.125c1.02 2.171 3.082 3.669 5.462 3.969l15.484 1.946-11.383 10.676c-1.75 1.641-2.538 4.065-2.086 6.421l2.934 15.328-13.671-7.526c-2.103-1.157-4.65-1.157-6.752 0l-13.67 7.526 2.933-15.328c.451-2.357-.336-4.78-2.086-6.421l-11.383-10.676z" fill="#6b5742" fill-opacity="1" data-original-color="#000000ff" stroke="none" stroke-opacity="1"/></g></svg>