<svg height="511pt" viewBox="-16 1 511 511.99999" width="511pt" xmlns="http://www.w3.org/2000/svg"><path d="m439.820312 147.761719v278.238281h-261.082031l-48.6875-51.1875v-259.417969h277.402344c17.847656 0 32.367187 14.519531 32.367187 32.367188zm0 0" fill="#00e87b"/><path d="m439.820312 147.761719v278.238281h-154.882812v-310.605469h122.515625c17.847656 0 32.367187 14.519531 32.367187 32.367188zm0 0" fill="#00bf60"/><path d="m145.988281 391.507812v-335.675781c0-30.835937-24.917969-55.832031-55.660156-55.832031h-56.839844c-18.21875 0-32.988281 14.8125-32.988281 33.089844 0 18.273437 14.769531 33.085937 32.988281 33.085937h43.546875c1.644532 0 2.980469 1.335938 2.980469 2.988281v322.34375zm0 0" fill="#0082ff"/><path d="m478.5 443.160156c0 18.269532-14.769531 33.089844-32.988281 33.089844h-285.742188v-66.179688h285.742188c9.109375 0 17.359375 3.703126 23.328125 9.691407s9.660156 14.257812 9.660156 23.398437zm0 0" fill="#0082ff"/><path d="m190.773438 437.097656c0-41.367187-33.433594-74.902344-74.675782-74.902344-41.242187 0-74.675781 33.535157-74.675781 74.902344 0 41.367188 33.433594 74.902344 74.675781 74.902344 41.242188 0 74.675782-33.535156 74.675782-74.902344zm0 0" fill="#005085"/><path d="m116.097656 412.117188c-8.800781 0-15.933594 7.136718-15.933594 15.9375v18.085937c0 8.800781 7.136719 15.933594 15.933594 15.933594 8.800782 0 15.933594-7.132813 15.933594-15.933594v-18.085937c0-8.800782-7.132812-15.9375-15.933594-15.9375zm0 0" fill="#fff"/><path d="m358.0625 234.890625-87.675781 87.679687c-3.609375 3.601563-8.339844 5.410157-13.078125 5.410157-4.742188 0-9.472656-1.808594-13.082032-5.410157l-32.410156-32.417968c-6.21875-6.222656-6.21875-16.3125 0-22.53125 6.222656-6.21875 16.3125-6.21875 22.53125 0l22.957032 22.960937 27.628906-27.632812 50.589844-50.597657c6.230468-6.21875 16.320312-6.21875 22.539062 0 6.222656 6.230469 6.222656 16.3125 0 22.539063zm0 0" fill="#fff"/><path d="m358.0625 234.890625-73.125 73.128906v-45.070312l50.585938-50.597657c6.230468-6.21875 16.320312-6.21875 22.539062 0 6.222656 6.230469 6.222656 16.3125 0 22.539063zm0 0" fill="#f3eee9"/><path d="m478.5 443.160156c0 18.269532-14.769531 33.089844-32.988281 33.089844h-160.574219v-66.179688h160.574219c9.109375 0 17.359375 3.703126 23.328125 9.691407s9.660156 14.257812 9.660156 23.398437zm0 0" fill="#2c4ce6"/></svg>