<?xml version="1.0" encoding="iso-8859-1"?>
<!-- Generator: Adobe Illustrator 19.0.0, SVG Export Plug-In . SVG Version: 6.00 Build 0)  -->
<svg version="1.1" id="Capa_1" xmlns="http://www.w3.org/2000/svg" xmlns:xlink="http://www.w3.org/1999/xlink" x="0px" y="0px"
	 viewBox="0 0 512 512" style="enable-background:new 0 0 512 512;" xml:space="preserve">
<path style="fill:#32D736;" d="M482.034,104.7c0,0,0,0,0,0.3l-16.199,18.6H78.633l-18.6-18.6c0-0.3,0-0.3,0-0.3
	c0.3-2.401,1.8-6.899,2.401-8.101l60-90c2.999-4.198,7.5-6.599,12.6-6.599h272c5.099,0,9.6,2.401,12.599,6.599l60,90
	C480.534,98.401,482.034,102.9,482.034,104.7z"/>
<g>
	<path style="fill:#10BB67;" d="M482.034,104.7c0,0,0,0,0,0.3l-16.199,18.6H271.034V0h136c5.099,0,9.6,2.401,12.599,6.599l60,90
		C480.534,98.401,482.034,102.9,482.034,104.7z"/>
	<path style="fill:#10BB67;" d="M482.034,105v264.2c0,3.3-1.199,6.899-3.6,9.6l-85.201,101.1c-2.999,3.3-7.2,5.4-11.4,5.4h-161
		c-2.1,0-4.2-0.3-6-1.199L69.033,420.8c-5.4-2.399-9-7.798-9-13.799V105H482.034z"/>
</g>
<path style="fill:#0CA656;" d="M482.034,105v264.2c0,3.3-1.199,6.899-3.6,9.6l-85.201,101.1c-2.999,3.3-7.2,5.4-11.4,5.4H271.034
	V105H482.034z"/>
<path style="fill:#C5C9F7;" d="M331.034,105v122c0,5.4-2.999,10.499-7.8,13.2c-2.401,1.199-4.799,1.8-7.2,1.8
	c-2.999,0-5.7-0.901-8.401-2.401l-36.599-24.6l-36.599,24.6c-4.801,2.999-10.501,3.3-15.601,0.601c-4.801-2.701-7.8-7.8-7.8-13.2
	V105l14.7-14.7h93.3L331.034,105z"/>
<path style="fill:#A8AFF1;" d="M331.034,105v122c0,5.4-2.999,10.499-7.8,13.2c-2.401,1.199-4.799,1.8-7.2,1.8
	c-2.999,0-5.7-0.901-8.401-2.401l-36.599-24.6V90.3h47.999L331.034,105z"/>
<path style="fill:#C5C9F7;" d="M407.034,302h-61c-8.291,0-15-6.709-15-15s6.709-15,15-15h61c8.291,0,15,6.709,15,15
	S415.325,302,407.034,302z"/>
<path style="fill:#FEC478;" d="M503.034,373.999l-72.001,96c-19.799,26.4-51,42.001-84,42.001h-135.8
	c-46.8,0-92.699-9.6-135.899-27.9l-3.3-92.401c20.099-96.301,119.7-120.3,177.299-69.6c6.301,5.099,14.5,8.401,21.7,9.3
	c2.1,0.601,3.9,0.601,5.7,0.601h55.3c16.5,0,29.7,13.2,30,29.7v0.3c0,16.5-13.5,30-30,30h-93.5c-8.401,0-15,6.599-15,15
	c0,8.399,6.599,15,15,15h118.4c15,0,25.8-6.301,35.099-16.8l68.101-78.6c10.8-11.7,29.399-12.601,40.499-3.001
	c2.701,2.1,5.099,4.501,6.899,7.5C514.434,341.3,513.533,360.2,503.034,373.999z"/>
<g>
	<path style="fill:#FEB756;" d="M332.034,392h-61v-60.601c2.1,0.601,3.9,0.601,5.7,0.601h55.3c16.5,0,29.7,13.2,30,29.7v0.3
		C362.034,378.5,348.533,392,332.034,392z"/>
	<path style="fill:#FEB756;" d="M503.034,373.999l-72.001,96c-19.799,26.4-51,42.001-84,42.001h-76v-90h85.901
		c15,0,25.8-6.301,35.099-16.8l68.101-78.6c10.8-11.7,29.399-12.601,40.499-3.001c2.701,2.1,5.099,4.501,6.899,7.5
		C514.434,341.3,513.533,360.2,503.034,373.999z"/>
</g>
<path style="fill:#17ACE8;" d="M120.034,347c0-24.814-20.186-45-45-45h-60c-8.291,0-15,6.709-15,15v180c0,8.291,6.709,15,15,15h60
	c24.814,0,45-20.186,45-45V347z"/>
<rect x="211.03" style="fill:#E1E4FB;" width="120" height="105"/>
<rect x="271.03" style="fill:#C5C9F7;" width="60" height="105"/>
<g>
</g>
<g>
</g>
<g>
</g>
<g>
</g>
<g>
</g>
<g>
</g>
<g>
</g>
<g>
</g>
<g>
</g>
<g>
</g>
<g>
</g>
<g>
</g>
<g>
</g>
<g>
</g>
<g>
</g>
</svg>
