<svg id="glphy_copy" viewBox="0 0 64 64" xmlns="http://www.w3.org/2000/svg" data-name="glphy copy"><g fill="#ed1c24"><path d="m40.36913 24.01608a15.91915 15.91915 0 0 0 .29-2.28986 16.76651 16.76651 0 1 0 -29.03835 10.43945l-2.34985 6.48963a1.00732 1.00732 0 0 0 1.32989 1.25988l6.67969-2.76983c2.093-.79932 4.22437.589 6.40961.37976a17.89486 17.89486 0 0 1 16.67901-13.50903zm-25.9685-9.00946h19.03894a1.00013 1.00013 0 0 1 0 1.99993h-19.03894a1 1 0 0 1 0-1.99993zm0 4.7597h19.03894a1.00011 1.00011 0 0 1 0 1.99988h-19.03894a.99994.99994 0 1 1 0-1.99988zm9.51937 6.75968h-9.51937a1 1 0 0 1 .00006-1.99987h9.51931a1 1 0 0 1 0 1.99987z"/><path d="m52.64849 52.57449a15.83693 15.83693 0 1 0 -13.29931 5.01971 16.15027 16.15027 0 0 0 5.66973-.42993 3.41278 3.41278 0 0 1 2.20984.13995l6.28968 2.60987a1.0081 1.0081 0 0 0 1.32983-1.26zm-12.62927-3.37976a1.00024 1.00024 0 0 1 -.00995-1.99988 1.00024 1.00024 0 0 1 .00995 1.99988zm.97992-5.82972v1.72992a1.00005 1.00005 0 0 1 -1.99988-.00006v-2.62982a1.00289 1.00289 0 0 1 .99994-.99994 2.80484 2.80484 0 1 0 -2.80987-2.7998 1 1 0 0 1 -1.99988-.00006 4.818 4.818 0 0 1 4.80975-4.8097c5.7486.09192 6.5548 8.25714.99994 9.50945z"/></g></svg>