<svg id="flat" height="512" viewBox="0 0 512 512" width="512" xmlns="http://www.w3.org/2000/svg"><path d="m232 64h-48v56l16.777-4.794c22.157-6.33 35.742-28.61 31.223-51.206z" fill="#ebc88f"/><path d="m376 200.004h-56v-32h24c17.673 0 32 14.327 32 32z" fill="#ebc88f"/><circle cx="416" cy="432" fill="#234d64" r="56"/><circle cx="416" cy="432" fill="#ebc150" r="24"/><path d="m416 360c-39.765 0-72 32.235-72 72h144c0-39.765-32.235-72-72-72z" fill="#933333"/><circle cx="136" cy="424" fill="#234d64" r="64"/><circle cx="136" cy="424" fill="#ebc150" r="32"/><path d="m272 232h-48v32h48v104h32v-104-13.899c0-9.997-8.104-18.101-18.101-18.101z" fill="#c54343"/><path d="m360 208v162.808c0 11.704-9.488 21.192-21.192 21.192h-62.294c-24.584 0-44.514-19.93-44.514-44.514v-51.486h-76.669c-63.696 0-115.331 51.635-115.331 115.331 0 11.415 9.254 20.669 20.669 20.669h292.424c9.545 0 18.7-3.792 25.449-10.541l18.917-18.917c6.749-6.749 10.541-15.904 10.541-25.449v-121.093h-8v-48z" fill="#cf4747"/><path d="m224 312h-96c-13.255 0-24-10.745-24-24 0-13.255 10.745-24 24-24h96c13.255 0 24 10.745 24 24 0 13.255-10.745 24-24 24z" fill="#408eb8"/><path d="m336 392h-64v-32h32c17.673 0 32 14.327 32 32z" fill="#234d64"/><path d="m232 264h-64v-128c0-17.673 14.327-32 32-32 17.673 0 32 14.327 32 32z" fill="#e44e4e"/><path d="m275.781 168.004-60.622-30.311c-7.904-3.952-17.516-.748-21.466 7.156-3.952 7.903-.748 17.514 7.155 21.466l64 32c2.222 1.111 4.671 1.689 7.155 1.689h55.997v-32z" fill="#c14242"/><circle cx="376" cy="200" fill="#234d64" r="16"/><path d="m384 256c0 17.673 21.491 32 48 32v-64c-26.509 0-48 14.327-48 32z" fill="#933333"/><path d="m240 64c0-22.091-17.909-40-40-40s-40 17.909-40 40 17.909 40 40 40v-40z" fill="#234d64"/><g><path d="m136 272h-112c-4.418 0-8-3.582-8-8s3.582-8 8-8h112c4.418 0 8 3.582 8 8s-3.582 8-8 8z" fill="#234d64"/></g><path d="m24 152h112v112h-112z" fill="#c9874b"/><path d="m96 192-16-8-16 8v-40h32z" fill="#ebc150"/><g><path d="m64 248h-16c-4.418 0-8-3.582-8-8s3.582-8 8-8h16c4.418 0 8 3.582 8 8s-3.582 8-8 8z" fill="#782929"/></g><g><path d="m64 224h-16c-4.418 0-8-3.582-8-8s3.582-8 8-8h16c4.418 0 8 3.582 8 8s-3.582 8-8 8z" fill="#782929"/></g><g><path d="m480 264h-16c-4.418 0-8-3.582-8-8s3.582-8 8-8h16c4.418 0 8 3.582 8 8s-3.582 8-8 8z" fill="#ebc150"/></g><g><path d="m464.006 240.002c-2.935 0-5.76-1.621-7.161-4.424-1.976-3.952-.374-8.757 3.577-10.733l16-8c3.951-1.976 8.758-.375 10.733 3.578 1.976 3.952.374 8.757-3.577 10.733l-16 8c-1.148.573-2.37.846-3.572.846z" fill="#ebc150"/></g><g><path d="m479.994 296.002c-1.203 0-2.423-.272-3.572-.847l-16-8c-3.951-1.976-5.553-6.781-3.577-10.733 1.977-3.953 6.78-5.553 10.733-3.578l16 8c3.951 1.976 5.553 6.781 3.577 10.733-1.401 2.804-4.226 4.425-7.161 4.425z" fill="#ebc150"/></g></svg>