<svg xmlns="http://www.w3.org/2000/svg" viewBox="0 0 501.99 512"><defs><style>.cls-1{fill:#6b5742;}</style></defs><g id="Layer_2" data-name="Layer 2"><g id="Layer_1-2" data-name="Layer 1"><path class="cls-1" d="M481.37,374.08H384.69a20.64,20.64,0,0,0-20.62,20.62V435H313.54V413.7a25.15,25.15,0,0,0-25.13-25.13H91.59A25.16,25.16,0,0,0,66.46,413.7V435H38.59A22.61,22.61,0,0,1,16,412.45v-80.6a43,43,0,0,1,43-43h66.36l-8.91,36.58a8,8,0,0,0,7.77,9.89H351.33a8,8,0,0,0,7.77-6.11l9.84-40.36h70.25a59,59,0,0,0,59-59v-98A38.63,38.63,0,0,0,459.58,93.3H453.3V72a25.15,25.15,0,0,0-25.13-25.13H256.91A25.15,25.15,0,0,0,231.78,72V93.3H202.59V88.68a8,8,0,0,0-6.73-7.89l-22.19-3.56a77.26,77.26,0,0,0-4.18-10.1l13.17-18.2a8,8,0,0,0-.82-10.34L164,20.75a8,8,0,0,0-10.35-.82L135.46,33.1a77.26,77.26,0,0,0-10.1-4.18L121.81,6.74A8,8,0,0,0,113.91,0H88.68a8,8,0,0,0-7.89,6.74L77.24,28.92A76.82,76.82,0,0,0,67.13,33.1L48.93,19.93a8,8,0,0,0-10.34.82L20.75,38.59a8,8,0,0,0-.82,10.34l13.18,18.2a76,76,0,0,0-4.19,10.1L6.74,80.78A8,8,0,0,0,0,88.68v25.23a8,8,0,0,0,6.74,7.9l22.18,3.55a76,76,0,0,0,4.19,10.1l-13.18,18.2A8,8,0,0,0,20.75,164l17.84,17.84a8,8,0,0,0,10.35.82l18.19-13.17a76.82,76.82,0,0,0,10.11,4.18l3.55,22.18a8,8,0,0,0,7.9,6.74h25.22a8,8,0,0,0,7.9-6.74l3.55-22.18a77.26,77.26,0,0,0,10.1-4.18l18.2,13.17a8,8,0,0,0,10.35-.82L181.84,164a8,8,0,0,0,.82-10.35l-13.17-18.2a76,76,0,0,0,4.19-10.1l22.18-3.55a8,8,0,0,0,6.73-7.9V109.3h29.19v21.33a25.16,25.16,0,0,0,25.13,25.14H428.17a25.16,25.16,0,0,0,25.13-25.14V109.3h6.29a22.61,22.61,0,0,1,22.59,22.58v98a43,43,0,0,1-43,43H372.84l8.91-36.58A8,8,0,0,0,374,226.4H146.85a8,8,0,0,0-7.78,6.11l-9.83,40.36H59a59,59,0,0,0-59,59v80.6A38.63,38.63,0,0,0,38.59,451H66.46v21.34a25.17,25.17,0,0,0,25.13,25.13H288.41a25.16,25.16,0,0,0,25.13-25.13V451h50.53v40.34A20.64,20.64,0,0,0,384.69,512h96.68A20.64,20.64,0,0,0,502,491.38V394.7a20.64,20.64,0,0,0-20.62-20.62Zm-294.78-267-20.43,3.27a8,8,0,0,0-6.48,5.92A59.66,59.66,0,0,1,153.16,132a8,8,0,0,0,.41,8.77l12.13,16.76-8.19,8.19-16.76-12.14a8,8,0,0,0-8.77-.4,59.86,59.86,0,0,1-15.71,6.52,8,8,0,0,0-5.91,6.48l-3.28,20.43H95.51l-3.27-20.43a8,8,0,0,0-5.92-6.48,59.66,59.66,0,0,1-15.71-6.52,8,8,0,0,0-8.77.4L45.08,165.7l-8.19-8.19L49,140.75a8,8,0,0,0,.4-8.77,60,60,0,0,1-6.52-15.71,8,8,0,0,0-6.48-5.92L16,107.08V95.51l20.43-3.27a8,8,0,0,0,6.49-5.92,59.64,59.64,0,0,1,6.51-15.71,8,8,0,0,0-.4-8.77L36.89,45.08l8.19-8.19L61.84,49a8,8,0,0,0,8.77.4,60,60,0,0,1,15.71-6.51,8,8,0,0,0,5.92-6.48L95.51,16h11.58l3.27,20.43a8,8,0,0,0,5.91,6.48A59.66,59.66,0,0,1,132,49.43a8,8,0,0,0,8.77-.4l16.77-12.14,8.18,8.19L153.57,61.84a8,8,0,0,0-.41,8.77,59.66,59.66,0,0,1,6.52,15.71,8,8,0,0,0,6.48,5.92l20.43,3.27ZM437.3,130.63a9.13,9.13,0,0,1-9.13,9.13H256.91a9.13,9.13,0,0,1-9.13-9.13V72a9.13,9.13,0,0,1,9.13-9.13H428.17A9.13,9.13,0,0,1,437.3,72ZM153.13,242.4H363.79L345,319.34H134.38Zm144.41,230a9.14,9.14,0,0,1-9.13,9.13H91.59a9.15,9.15,0,0,1-9.13-9.13V413.7a9.15,9.15,0,0,1,9.13-9.13H288.41a9.14,9.14,0,0,1,9.13,9.13Zm188.45,19a4.68,4.68,0,0,1-4.62,4.62H384.69a4.69,4.69,0,0,1-4.62-4.62V394.7a4.68,4.68,0,0,1,4.62-4.62h96.68A4.67,4.67,0,0,1,486,394.7Zm-21-62-30.24,37.38a8,8,0,0,1-5.8,3h-.42a8,8,0,0,1-5.66-2.34L401.66,446.2A8,8,0,1,1,413,434.88l14.91,14.91,24.65-30.47A8,8,0,1,1,465,429.38ZM243.82,280.87a8,8,0,0,1,8-8h75.4a8,8,0,0,1,0,16h-75.4A8,8,0,0,1,243.82,280.87Zm-80.87,0a8,8,0,0,1,8-8h50.27a8,8,0,1,1,0,16H171A8,8,0,0,1,163,280.87ZM276.14,443a8,8,0,0,1-8,8H217.87a8,8,0,0,1,0-16h50.27A8,8,0,0,1,276.14,443Zm-80.87,0a8,8,0,0,1-8,8h-75.4a8,8,0,0,1,0-16h75.4A8,8,0,0,1,195.27,443ZM348.11,101.29a8,8,0,0,1-8,8H273.05a8,8,0,0,1,0-16h67.06a8,8,0,0,1,8,8Zm71.92,0a8,8,0,0,1-8,8H367.32a8,8,0,0,1,0-16H412A8,8,0,0,1,420,101.29ZM101.3,56a45.27,45.27,0,1,0,45.26,45.26A45.32,45.32,0,0,0,101.3,56Zm0,74.53a29.27,29.27,0,1,1,29.26-29.27A29.3,29.3,0,0,1,101.3,130.56Z"/></g></g></svg>